<svg width="24" height="25" viewBox="0 0 24 25" fill="none" xmlns="http://www.w3.org/2000/svg">
<rect y="0.5" width="24" height="24" rx="6" fill="#F8F8F8"/>
<path d="M12.0134 6.44C9.80673 6.44 8.01339 8.23333 8.01339 10.44V12.3667C8.01339 12.7733 7.84006 13.3933 7.63339 13.74L6.86673 15.0133C6.39339 15.8 6.72006 16.6733 7.58673 16.9667C10.4601 17.9267 13.5601 17.9267 16.4334 16.9667C17.2401 16.7 17.5934 15.7467 17.1534 15.0133L16.3867 13.74C16.1867 13.3933 16.0134 12.7733 16.0134 12.3667V10.44C16.0134 8.24 14.2134 6.44 12.0134 6.44Z" stroke="#3A7AFE" stroke-miterlimit="10" stroke-linecap="round"/>
<path d="M13.2467 6.63333C13.04 6.57333 12.8267 6.52667 12.6067 6.5C11.9667 6.42 11.3534 6.46667 10.78 6.63333C10.9734 6.14 11.4534 5.79333 12.0134 5.79333C12.5734 5.79333 13.0534 6.14 13.2467 6.63333Z" stroke="#3A7AFE" stroke-miterlimit="10" stroke-linecap="round" stroke-linejoin="round"/>
<path d="M14.0134 17.2067C14.0134 18.3067 13.1134 19.2067 12.0134 19.2067C11.4668 19.2067 10.9601 18.98 10.6001 18.62C10.2401 18.26 10.0134 17.7533 10.0134 17.2067" stroke="#3A7AFE" stroke-miterlimit="10"/>
<rect x="12" y="3.5" width="6" height="6" rx="3" fill="#FF2D55"/>
</svg>
